# xmcd CD database file
#
# Track frame offsets:
#	150
#	12132
#	22515
#	37930
#	47576
#	58217
#	71554
#	94236
#	109844
#	123672
#	136160
#
# Disc length: 2125 seconds
#
# Revision: 0
# Processed by: cddbd v1.5.2PL0 Copyright (c) Steve Scherf et al.
# Submitted via: CDex 1.51
#
DISCID=89084b0b
DTITLE=Geoffrey Fletcher - Right As Rain
DYEAR=2008
DGENRE=Country
TTITLE0=Right As Rain
TTITLE1=Gone Gone Gone
TTITLE2=Silver Coins
TTITLE3=Evil On Your Mind
TTITLE4=White Faced Cattle
TTITLE5=Losing You
TTITLE6=Lamboo Station
TTITLE7=Old Bush Track
TTITLE8=Honeymoon On A Rocketship
TTITLE9=Black Pete
TTITLE10=Station Cattle
EXTD=YEAR: 2008
EXTT0=
EXTT1=
EXTT2=
EXTT3=
EXTT4=
EXTT5=
EXTT6=
EXTT7=
EXTT8=
EXTT9=
EXTT10=
PLAYORDER=
